<?xml version="1.0" standalone="no"?>
<!DOCTYPE svg PUBLIC "-//W3C//DTD SVG 20010904//EN"
 "http://www.w3.org/TR/2001/REC-SVG-20010904/DTD/svg10.dtd">
<svg version="1.0" xmlns="http://www.w3.org/2000/svg"
 width="512.000000pt" height="512.000000pt" viewBox="0 0 512.000000 512.000000"
 preserveAspectRatio="xMidYMid meet">

<g transform="translate(0.000000,512.000000) scale(0.100000,-0.100000)"
fill="#000000" stroke="none">
<path d="M2349 4865 c-341 -55 -628 -204 -880 -455 -233 -233 -370 -484 -440
-810 -20 -90 -23 -134 -23 -310 0 -175 3 -220 22 -310 48 -222 129 -414 253
-600 45 -68 109 -141 226 -258 89 -90 176 -182 192 -205 80 -117 125 -250 137
-402 4 -49 13 -107 20 -129 10 -28 14 -99 14 -260 0 -121 5 -238 10 -258 16
-55 70 -128 122 -163 l45 -30 5 -97 c4 -83 9 -107 37 -162 37 -75 94 -128 171
-157 45 -17 78 -19 300 -19 290 0 325 7 405 86 68 66 96 134 103 252 l5 97 45
30 c52 35 106 108 122 163 5 20 10 137 10 258 0 161 4 232 14 260 7 22 16 80
20 129 13 160 65 307 150 418 19 25 104 115 189 199 110 109 172 180 216 248
124 187 205 379 253 600 19 90 22 135 22 310 0 175 -3 220 -22 307 -71 327
-209 580 -442 813 -230 231 -470 363 -785 435 -147 34 -378 43 -516 20z m256
-401 c40 -19 69 -73 60 -113 -3 -16 -19 -40 -34 -55 -26 -25 -40 -29 -128 -36
-55 -5 -122 -14 -149 -21 -356 -89 -614 -397 -643 -766 -7 -98 -10 -106 -39
-135 -41 -42 -100 -43 -142 -3 -39 37 -43 65 -30 183 14 129 41 225 95 339 57
121 105 192 190 282 155 163 353 275 560 315 146 28 216 31 260 10z m435
-3407 c0 -130 -10 -165 -55 -185 -41 -19 -817 -17 -854 2 -42 22 -51 55 -51
184 l0 117 480 0 480 0 0 -118z m-190 -472 c0 -66 -13 -96 -50 -118 -42 -25
-438 -25 -480 0 -37 22 -50 52 -50 118 l0 55 290 0 290 0 0 -55z"/>
</g>
</svg>
